<mxfile host="app.diagrams.net" modified="2023-01-27T17:22:12.978Z" agent="5.0 (X11; Linux x86_64) AppleWebKit/537.36 (KHTML, like Gecko) Chrome/109.0.0.0 Safari/537.36" etag="BcglgIi6nUFjPjNi0fE2" version="20.8.13" type="github">
  <diagram id="C5RBs43oDa-KdzZeNtuy" name="Page-1">
    <mxGraphModel dx="814" dy="402" grid="1" gridSize="10" guides="1" tooltips="1" connect="1" arrows="1" fold="1" page="1" pageScale="1" pageWidth="827" pageHeight="1169" math="0" shadow="0">
      <root>
        <mxCell id="WIyWlLk6GJQsqaUBKTNV-0" />
        <mxCell id="WIyWlLk6GJQsqaUBKTNV-1" parent="WIyWlLk6GJQsqaUBKTNV-0" />
        <mxCell id="OL_1E66XTBd1S4auUIhp-7" value="" style="edgeStyle=orthogonalEdgeStyle;rounded=0;orthogonalLoop=1;jettySize=auto;html=1;" edge="1" parent="WIyWlLk6GJQsqaUBKTNV-1" source="OL_1E66XTBd1S4auUIhp-3">
          <mxGeometry relative="1" as="geometry">
            <mxPoint x="370" y="120" as="targetPoint" />
          </mxGeometry>
        </mxCell>
        <mxCell id="OL_1E66XTBd1S4auUIhp-3" value="start" style="ellipse;whiteSpace=wrap;html=1;" vertex="1" parent="WIyWlLk6GJQsqaUBKTNV-1">
          <mxGeometry x="310" y="10" width="120" height="80" as="geometry" />
        </mxCell>
        <mxCell id="OL_1E66XTBd1S4auUIhp-9" value="" style="edgeStyle=orthogonalEdgeStyle;rounded=0;orthogonalLoop=1;jettySize=auto;html=1;" edge="1" parent="WIyWlLk6GJQsqaUBKTNV-1" target="OL_1E66XTBd1S4auUIhp-8">
          <mxGeometry relative="1" as="geometry">
            <mxPoint x="370" y="180" as="sourcePoint" />
          </mxGeometry>
        </mxCell>
        <mxCell id="OL_1E66XTBd1S4auUIhp-11" value="" style="edgeStyle=orthogonalEdgeStyle;rounded=0;orthogonalLoop=1;jettySize=auto;html=1;" edge="1" parent="WIyWlLk6GJQsqaUBKTNV-1" source="OL_1E66XTBd1S4auUIhp-8">
          <mxGeometry relative="1" as="geometry">
            <mxPoint x="470" y="240" as="targetPoint" />
          </mxGeometry>
        </mxCell>
        <mxCell id="OL_1E66XTBd1S4auUIhp-14" value="" style="edgeStyle=orthogonalEdgeStyle;rounded=0;orthogonalLoop=1;jettySize=auto;html=1;" edge="1" parent="WIyWlLk6GJQsqaUBKTNV-1" source="OL_1E66XTBd1S4auUIhp-8">
          <mxGeometry relative="1" as="geometry">
            <mxPoint x="240" y="240" as="targetPoint" />
          </mxGeometry>
        </mxCell>
        <mxCell id="OL_1E66XTBd1S4auUIhp-8" value="i &amp;lt; 101" style="rhombus;whiteSpace=wrap;html=1;" vertex="1" parent="WIyWlLk6GJQsqaUBKTNV-1">
          <mxGeometry x="330" y="200" width="80" height="80" as="geometry" />
        </mxCell>
        <mxCell id="OL_1E66XTBd1S4auUIhp-12" value="2++" style="rounded=1;whiteSpace=wrap;html=1;" vertex="1" parent="WIyWlLk6GJQsqaUBKTNV-1">
          <mxGeometry x="470" y="210" width="120" height="60" as="geometry" />
        </mxCell>
        <mxCell id="OL_1E66XTBd1S4auUIhp-18" value="" style="edgeStyle=orthogonalEdgeStyle;rounded=0;orthogonalLoop=1;jettySize=auto;html=1;" edge="1" parent="WIyWlLk6GJQsqaUBKTNV-1" source="OL_1E66XTBd1S4auUIhp-16" target="OL_1E66XTBd1S4auUIhp-12">
          <mxGeometry relative="1" as="geometry" />
        </mxCell>
        <mxCell id="OL_1E66XTBd1S4auUIhp-16" value="range [ i ] = 0" style="whiteSpace=wrap;html=1;rounded=1;" vertex="1" parent="WIyWlLk6GJQsqaUBKTNV-1">
          <mxGeometry x="450" y="300" width="120" height="60" as="geometry" />
        </mxCell>
        <mxCell id="OL_1E66XTBd1S4auUIhp-25" value="" style="edgeStyle=orthogonalEdgeStyle;rounded=0;orthogonalLoop=1;jettySize=auto;html=1;" edge="1" parent="WIyWlLk6GJQsqaUBKTNV-1" source="OL_1E66XTBd1S4auUIhp-20" target="OL_1E66XTBd1S4auUIhp-24">
          <mxGeometry relative="1" as="geometry" />
        </mxCell>
        <mxCell id="OL_1E66XTBd1S4auUIhp-30" value="" style="edgeStyle=orthogonalEdgeStyle;rounded=0;orthogonalLoop=1;jettySize=auto;html=1;" edge="1" parent="WIyWlLk6GJQsqaUBKTNV-1" source="OL_1E66XTBd1S4auUIhp-20" target="OL_1E66XTBd1S4auUIhp-29">
          <mxGeometry relative="1" as="geometry" />
        </mxCell>
        <mxCell id="OL_1E66XTBd1S4auUIhp-20" value="roll &amp;lt; 40" style="rhombus;whiteSpace=wrap;html=1;" vertex="1" parent="WIyWlLk6GJQsqaUBKTNV-1">
          <mxGeometry x="200" y="240" width="80" height="80" as="geometry" />
        </mxCell>
        <mxCell id="OL_1E66XTBd1S4auUIhp-34" value="" style="edgeStyle=orthogonalEdgeStyle;rounded=0;orthogonalLoop=1;jettySize=auto;html=1;" edge="1" parent="WIyWlLk6GJQsqaUBKTNV-1" source="OL_1E66XTBd1S4auUIhp-24">
          <mxGeometry relative="1" as="geometry">
            <mxPoint x="110" y="440" as="targetPoint" />
          </mxGeometry>
        </mxCell>
        <mxCell id="OL_1E66XTBd1S4auUIhp-24" value="i = 0" style="rounded=1;whiteSpace=wrap;html=1;" vertex="1" parent="WIyWlLk6GJQsqaUBKTNV-1">
          <mxGeometry x="50" y="340" width="120" height="60" as="geometry" />
        </mxCell>
        <mxCell id="OL_1E66XTBd1S4auUIhp-29" value="range[ total_marks&lt;br&gt;[ 0 ] ++1" style="rounded=1;whiteSpace=wrap;html=1;" vertex="1" parent="WIyWlLk6GJQsqaUBKTNV-1">
          <mxGeometry x="180" y="410" width="120" height="60" as="geometry" />
        </mxCell>
        <mxCell id="OL_1E66XTBd1S4auUIhp-37" value="" style="edgeStyle=orthogonalEdgeStyle;rounded=0;orthogonalLoop=1;jettySize=auto;html=1;" edge="1" parent="WIyWlLk6GJQsqaUBKTNV-1" source="OL_1E66XTBd1S4auUIhp-35" target="OL_1E66XTBd1S4auUIhp-36">
          <mxGeometry relative="1" as="geometry" />
        </mxCell>
        <mxCell id="OL_1E66XTBd1S4auUIhp-42" style="edgeStyle=orthogonalEdgeStyle;rounded=0;orthogonalLoop=1;jettySize=auto;html=1;exitX=0;exitY=0.5;exitDx=0;exitDy=0;" edge="1" parent="WIyWlLk6GJQsqaUBKTNV-1" source="OL_1E66XTBd1S4auUIhp-35">
          <mxGeometry relative="1" as="geometry">
            <mxPoint x="30" y="560" as="targetPoint" />
          </mxGeometry>
        </mxCell>
        <mxCell id="OL_1E66XTBd1S4auUIhp-35" value="i &amp;lt; 101" style="rhombus;whiteSpace=wrap;html=1;" vertex="1" parent="WIyWlLk6GJQsqaUBKTNV-1">
          <mxGeometry x="70" y="440" width="80" height="80" as="geometry" />
        </mxCell>
        <mxCell id="OL_1E66XTBd1S4auUIhp-40" value="" style="edgeStyle=orthogonalEdgeStyle;rounded=0;orthogonalLoop=1;jettySize=auto;html=1;" edge="1" parent="WIyWlLk6GJQsqaUBKTNV-1" source="OL_1E66XTBd1S4auUIhp-36" target="OL_1E66XTBd1S4auUIhp-39">
          <mxGeometry relative="1" as="geometry" />
        </mxCell>
        <mxCell id="OL_1E66XTBd1S4auUIhp-36" value="write [ i ], range [ i ];" style="whiteSpace=wrap;html=1;" vertex="1" parent="WIyWlLk6GJQsqaUBKTNV-1">
          <mxGeometry x="390" y="490" width="120" height="60" as="geometry" />
        </mxCell>
        <mxCell id="OL_1E66XTBd1S4auUIhp-39" value="i ++" style="rounded=1;whiteSpace=wrap;html=1;" vertex="1" parent="WIyWlLk6GJQsqaUBKTNV-1">
          <mxGeometry x="190" y="550" width="110" height="40" as="geometry" />
        </mxCell>
        <mxCell id="OL_1E66XTBd1S4auUIhp-41" value="" style="curved=1;endArrow=classic;html=1;rounded=0;exitX=0;exitY=0.5;exitDx=0;exitDy=0;" edge="1" parent="WIyWlLk6GJQsqaUBKTNV-1" source="OL_1E66XTBd1S4auUIhp-39">
          <mxGeometry width="50" height="50" relative="1" as="geometry">
            <mxPoint x="60" y="570" as="sourcePoint" />
            <mxPoint x="110" y="520" as="targetPoint" />
            <Array as="points">
              <mxPoint x="110" y="570" />
              <mxPoint x="60" y="520" />
            </Array>
          </mxGeometry>
        </mxCell>
        <mxCell id="OL_1E66XTBd1S4auUIhp-43" value="end" style="ellipse;whiteSpace=wrap;html=1;" vertex="1" parent="WIyWlLk6GJQsqaUBKTNV-1">
          <mxGeometry y="550" width="120" height="80" as="geometry" />
        </mxCell>
        <mxCell id="OL_1E66XTBd1S4auUIhp-45" style="edgeStyle=orthogonalEdgeStyle;rounded=0;orthogonalLoop=1;jettySize=auto;html=1;exitX=0.5;exitY=1;exitDx=0;exitDy=0;" edge="1" parent="WIyWlLk6GJQsqaUBKTNV-1" source="OL_1E66XTBd1S4auUIhp-43" target="OL_1E66XTBd1S4auUIhp-43">
          <mxGeometry relative="1" as="geometry" />
        </mxCell>
        <mxCell id="OL_1E66XTBd1S4auUIhp-46" value="i = 0; total&amp;nbsp;&lt;br&gt;-marks[ ] = {....}&lt;br&gt;range [ 101];&amp;nbsp;" style="rounded=0;whiteSpace=wrap;html=1;" vertex="1" parent="WIyWlLk6GJQsqaUBKTNV-1">
          <mxGeometry x="310" y="130" width="120" height="60" as="geometry" />
        </mxCell>
        <mxCell id="OL_1E66XTBd1S4auUIhp-49" value="range[ roll ]&amp;nbsp;" style="rounded=0;whiteSpace=wrap;html=1;" vertex="1" parent="WIyWlLk6GJQsqaUBKTNV-1">
          <mxGeometry x="260" y="330" width="120" height="60" as="geometry" />
        </mxCell>
        <mxCell id="OL_1E66XTBd1S4auUIhp-54" value="" style="curved=1;endArrow=classic;html=1;rounded=0;exitX=-0.008;exitY=0.133;exitDx=0;exitDy=0;exitPerimeter=0;" edge="1" parent="WIyWlLk6GJQsqaUBKTNV-1" source="OL_1E66XTBd1S4auUIhp-16">
          <mxGeometry width="50" height="50" relative="1" as="geometry">
            <mxPoint x="310" y="320" as="sourcePoint" />
            <mxPoint x="360" y="270" as="targetPoint" />
            <Array as="points">
              <mxPoint x="360" y="320" />
              <mxPoint x="310" y="270" />
            </Array>
          </mxGeometry>
        </mxCell>
        <mxCell id="OL_1E66XTBd1S4auUIhp-60" value="" style="curved=1;endArrow=classic;html=1;rounded=0;entryX=0.5;entryY=0;entryDx=0;entryDy=0;" edge="1" parent="WIyWlLk6GJQsqaUBKTNV-1" target="OL_1E66XTBd1S4auUIhp-49">
          <mxGeometry width="50" height="50" relative="1" as="geometry">
            <mxPoint x="280" y="280" as="sourcePoint" />
            <mxPoint x="330" y="230" as="targetPoint" />
            <Array as="points">
              <mxPoint x="330" y="280" />
              <mxPoint x="280" y="230" />
            </Array>
          </mxGeometry>
        </mxCell>
      </root>
    </mxGraphModel>
  </diagram>
</mxfile>
